<svg xmlns="http://www.w3.org/2000/svg" width="196.414" height="42.462" viewBox="0 0 196.414 42.462"><g id="Group_68" data-name="Group 68" transform="translate(-482.343 74.174)"><path id="Path_11" data-name="Path 11" d="M528.7-67.161h1.739a.192.192,0,0,1,.164.091l2.2,3.544,2.2-3.544a.189.189,0,0,1,.163-.091h1.739a.191.191,0,0,1,.191.191v8.212a.192.192,0,0,1-.191.193h-1.494a.193.193,0,0,1-.193-.193v-5.419L532.809-60.5h-.049l-2.4-3.634v5.382a.192.192,0,0,1-.191.193H528.7a.192.192,0,0,1-.191-.193V-66.97a.191.191,0,0,1,.191-.191" transform="translate(31.336 4.76)" fill="#77001e"></path><path id="Path_12" data-name="Path 12" d="M535.366-62.779V-62.8a4.445,4.445,0,0,1,4.581-4.445,4.4,4.4,0,0,1,4.556,4.422v.024a4.447,4.447,0,0,1-4.581,4.447,4.4,4.4,0,0,1-4.556-4.422m7.16,0V-62.8a2.611,2.611,0,0,0-2.6-2.7,2.571,2.571,0,0,0-2.579,2.678v.024a2.613,2.613,0,0,0,2.6,2.7,2.571,2.571,0,0,0,2.579-2.678" transform="translate(35.989 4.7)" fill="#77001e"></path><path id="Path_13" data-name="Path 13" d="M542.462-62.249V-66.97a.191.191,0,0,1,.191-.191h1.508a.192.192,0,0,1,.193.191V-62.3c0,1.4.7,2.124,1.853,2.124s1.855-.7,1.855-2.063V-66.97a.191.191,0,0,1,.191-.191h1.508a.191.191,0,0,1,.191.191v4.658c0,2.6-1.46,3.881-3.769,3.881s-3.722-1.289-3.722-3.819" transform="translate(40.805 4.76)" fill="#77001e"></path><path id="Path_14" data-name="Path 14" d="M549-67.161h1.457a.194.194,0,0,1,.153.076l3.97,5.218v-5.1a.191.191,0,0,1,.191-.191h1.484a.191.191,0,0,1,.191.191v8.405h-1.608l-4.163-5.466v5.273a.193.193,0,0,1-.193.193H549a.192.192,0,0,1-.191-.193V-66.97a.191.191,0,0,1,.191-.191" transform="translate(45.111 4.76)" fill="#77001e"></path><path id="Path_15" data-name="Path 15" d="M557.566-65.417h-2.424a.191.191,0,0,1-.191-.191V-66.97a.192.192,0,0,1,.191-.191h6.738a.193.193,0,0,1,.193.191v1.361a.192.192,0,0,1-.193.191h-2.422v6.661a.193.193,0,0,1-.193.191h-1.507a.191.191,0,0,1-.191-.191Z" transform="translate(49.282 4.76)" fill="#77001e"></path><path id="Path_16" data-name="Path 16" d="M563.462-67.2h1.491a.191.191,0,0,1,.176.116l3.52,8.274a.191.191,0,0,1-.176.267h-1.558a.194.194,0,0,1-.178-.119L566-60.467h-3.635l-.737,1.808a.194.194,0,0,1-.178.119h-1.509a.192.192,0,0,1-.176-.267l3.52-8.274a.193.193,0,0,1,.176-.116m1.863,5.06-1.141-2.788-1.143,2.788Z" transform="translate(52.539 4.736)" fill="#77001e"></path><path id="Path_17" data-name="Path 17" d="M566.884-67.161h1.508a.191.191,0,0,1,.191.191v8.212a.192.192,0,0,1-.191.193h-1.508a.192.192,0,0,1-.191-.193V-66.97a.191.191,0,0,1,.191-.191" transform="translate(57.251 4.76)" fill="#77001e"></path><path id="Path_18" data-name="Path 18" d="M570.023-67.161h1.457a.194.194,0,0,1,.153.076l3.97,5.218v-5.1a.191.191,0,0,1,.191-.191h1.484a.191.191,0,0,1,.191.191v8.212a.192.192,0,0,1-.191.193h-1.417L571.7-64.03v5.273a.193.193,0,0,1-.193.193h-1.482a.192.192,0,0,1-.191-.193V-66.97a.191.191,0,0,1,.191-.191" transform="translate(59.382 4.76)" fill="#77001e"></path><path id="Path_19" data-name="Path 19" d="M576.535-67.161h1.508a.191.191,0,0,1,.191.191v6.686h4.095a.191.191,0,0,1,.191.191v1.335a.192.192,0,0,1-.191.193h-5.793a.193.193,0,0,1-.193-.193V-66.97a.193.193,0,0,1,.193-.191" transform="translate(63.8 4.76)" fill="#77001e"></path><path id="Path_20" data-name="Path 20" d="M584.936-67.2h1.489a.193.193,0,0,1,.178.116l3.52,8.274a.192.192,0,0,1-.178.267h-1.556a.19.19,0,0,1-.178-.119l-.739-1.808h-3.634l-.737,1.808a.192.192,0,0,1-.178.119h-1.509a.191.191,0,0,1-.176-.267l3.52-8.274a.2.2,0,0,1,.178-.116m1.862,5.06-1.142-2.788-1.142,2.788Z" transform="translate(67.113 4.736)" fill="#77001e"></path><path id="Path_21" data-name="Path 21" d="M588.306-67.161h1.457a.194.194,0,0,1,.153.076l3.97,5.218v-5.1a.191.191,0,0,1,.191-.191h1.484a.191.191,0,0,1,.191.191v8.212a.192.192,0,0,1-.191.193h-1.418L589.98-64.03v5.273a.192.192,0,0,1-.191.193h-1.482a.193.193,0,0,1-.193-.193V-66.97a.193.193,0,0,1,.193-.191" transform="translate(71.79 4.76)" fill="#77001e"></path><path id="Path_22" data-name="Path 22" d="M594.626-66.97a.192.192,0,0,1,.191-.191h3.161a4.285,4.285,0,0,1,4.568,4.274v.025a4.3,4.3,0,0,1-4.568,4.3h-3.161a.192.192,0,0,1-.191-.193Zm1.89,1.516v5.182h1.462a2.45,2.45,0,0,0,2.59-2.567v-.024a2.47,2.47,0,0,0-2.59-2.592Z" transform="translate(76.211 4.76)" fill="#77001e"></path><path id="Path_23" data-name="Path 23" d="M533-58.838h-2.038v-.63h4.758v.63h-2.038v5.414H533Z" transform="translate(32.999 9.982)" fill="#77001e"></path><path id="Path_24" data-name="Path 24" d="M535.051-59.468h4.37v.621h-3.688v2.063h3.3v.623h-3.3v2.115h3.73v.621h-4.412Z" transform="translate(35.775 9.982)" fill="#77001e"></path><path id="Path_25" data-name="Path 25" d="M538.853-56.386V-56.4a3.044,3.044,0,0,1,3.057-3.126,3.142,3.142,0,0,1,2.357.959l-.465.5a2.633,2.633,0,0,0-1.9-.829,2.37,2.37,0,0,0-2.34,2.479v.017a2.386,2.386,0,0,0,2.34,2.5,2.622,2.622,0,0,0,1.951-.873l.45.44a3.147,3.147,0,0,1-2.417,1.063,3.016,3.016,0,0,1-3.032-3.109" transform="translate(38.355 9.94)" fill="#77001e"></path><path id="Path_26" data-name="Path 26" d="M543.344-59.468h.682v2.684h3.488v-2.684h.683v6.044h-.683v-2.72h-3.488v2.72h-.682Z" transform="translate(41.403 9.982)" fill="#77001e"></path><path id="Path_27" data-name="Path 27" d="M547.767-59.468h.64l3.807,4.843v-4.843h.665v6.044h-.544l-3.9-4.956v4.956h-.665Z" transform="translate(44.406 9.982)" fill="#77001e"></path><rect id="Rectangle_57" data-name="Rectangle 57" width="0.682" height="6.043" transform="translate(599.92 -49.486)" fill="#77001e"></rect><path id="Path_28" data-name="Path 28" d="M554.2-56.386V-56.4a3.044,3.044,0,0,1,3.057-3.126,3.142,3.142,0,0,1,2.357.959l-.465.5a2.633,2.633,0,0,0-1.9-.829,2.37,2.37,0,0,0-2.34,2.479v.017a2.386,2.386,0,0,0,2.34,2.5,2.622,2.622,0,0,0,1.951-.873l.45.44a3.147,3.147,0,0,1-2.417,1.063,3.016,3.016,0,0,1-3.032-3.109" transform="translate(48.77 9.94)" fill="#77001e"></path><path id="Path_29" data-name="Path 29" d="M561.114-59.494h.64l2.755,6.089h-.735l-.708-1.6h-3.289l-.717,1.6h-.7Zm1.684,3.878L561.424-58.7l-1.382,3.082Z" transform="translate(51.595 9.964)" fill="#77001e"></path><path id="Path_30" data-name="Path 30" d="M563.246-59.468h.682v5.414h3.4v.63h-4.084Z" transform="translate(54.912 9.982)" fill="#77001e"></path><path id="Path_31" data-name="Path 31" d="M568.822-56.386V-56.4a3.044,3.044,0,0,1,3.057-3.126,3.142,3.142,0,0,1,2.357.959l-.465.5a2.633,2.633,0,0,0-1.9-.829,2.37,2.37,0,0,0-2.34,2.479v.017a2.386,2.386,0,0,0,2.34,2.5,2.622,2.622,0,0,0,1.951-.873l.45.44a3.146,3.146,0,0,1-2.417,1.063,3.016,3.016,0,0,1-3.032-3.109" transform="translate(58.696 9.94)" fill="#77001e"></path><path id="Path_32" data-name="Path 32" d="M573.05-56.386V-56.4a3.062,3.062,0,0,1,3.09-3.126,3.035,3.035,0,0,1,3.076,3.109v.017a3.063,3.063,0,0,1-3.092,3.126,3.034,3.034,0,0,1-3.074-3.109m5.458,0V-56.4a2.4,2.4,0,0,0-2.384-2.5,2.375,2.375,0,0,0-2.365,2.479v.017a2.4,2.4,0,0,0,2.382,2.5,2.376,2.376,0,0,0,2.367-2.479" transform="translate(61.566 9.94)" fill="#77001e"></path><path id="Path_33" data-name="Path 33" d="M578.1-59.468h.682v5.414h3.4v.63H578.1Z" transform="translate(64.991 9.982)" fill="#77001e"></path><path id="Path_34" data-name="Path 34" d="M581.774-59.468h.682v5.414h3.4v.63h-4.084Z" transform="translate(67.488 9.982)" fill="#77001e"></path><path id="Path_35" data-name="Path 35" d="M585.452-59.468h4.37v.621h-3.688v2.063h3.3v.623h-3.3v2.115h3.73v.621h-4.412Z" transform="translate(69.984 9.982)" fill="#77001e"></path><path id="Path_36" data-name="Path 36" d="M589.254-56.386V-56.4a3.033,3.033,0,0,1,3.032-3.126,3.188,3.188,0,0,1,2.253.8l-.44.519a2.573,2.573,0,0,0-1.84-.692,2.362,2.362,0,0,0-2.3,2.479v.017a2.335,2.335,0,0,0,2.392,2.513,2.855,2.855,0,0,0,1.744-.6V-56h-1.84v-.613h2.5V-54.2a3.67,3.67,0,0,1-2.427.923,2.964,2.964,0,0,1-3.074-3.109" transform="translate(72.564 9.94)" fill="#77001e"></path><path id="Path_37" data-name="Path 37" d="M593.961-59.468h4.37v.621h-3.688v2.063h3.3v.623h-3.3v2.115h3.73v.621h-4.412Z" transform="translate(75.759 9.982)" fill="#77001e"></path><path id="Path_38" data-name="Path 38" d="M544.11-41.15h-2.231l-4.717-23.588h2.231a.5.5,0,0,0,.5-.5v-8.442a.5.5,0,0,0-.5-.5H524.234a1.488,1.488,0,0,0-1.16.556l-9.6,11.887-9.6-11.887a1.493,1.493,0,0,0-1.16-.556H487.559a.5.5,0,0,0-.5.5v8.442a.5.5,0,0,0,.5.5h2.229L485.071-41.15h-2.229a.5.5,0,0,0-.5.5v8.442a.5.5,0,0,0,.5.5h8.946L505.35-53.458a.33.33,0,0,1,.562,0l8.81,14.128,6.945-9.074a.329.329,0,0,1,.525,0l12.775,16.692h9.142a.5.5,0,0,0,.5-.5v-8.442a.5.5,0,0,0-.5-.5" transform="translate(0 0)" fill="#77001e"></path><path id="Path_39" data-name="Path 39" d="M498.6-59.2a.331.331,0,0,0-.562,0l-4.9,7.86a.167.167,0,0,0,.03.21l6.27,5.666a.166.166,0,0,0,.275-.134l-.223-3.277a.165.165,0,0,1,.26-.146l8.651,6.137a.166.166,0,0,0,.237-.223Z" transform="translate(7.31 10.055)" fill="#77001e"></path><path id="Path_40" data-name="Path 40" d="M508.107-56.514a.331.331,0,0,0-.525,0L503.13-50.7a.167.167,0,0,0,.032.233l6.226,4.709a.166.166,0,0,0,.26-.173l-.631-2.521a.166.166,0,0,1,.237-.188l7.351,3.745a.166.166,0,0,0,.208-.248Z" transform="translate(14.086 11.899)" fill="#77001e"></path></g></svg>